# MagicaVoxel @ Ephtracy

# group
o 

# material
mtllib ZT_Tree.vox.mtl
usemtl palette

# normals
vn -1 0 0
vn 1 0 0
vn 0 0 1
vn 0 0 -1
vn 0 -1 0
vn 0 1 0

# texcoords
vt 0.939453 0.5
vt 0.970703 0.5
vt 0.974609 0.5

# verts
v -0.5 0.7 0.5
v -0.5 0.7 0.3
v -0.5 0.7 0.2
v -0.5 0.7 0
v -0.5 0.7 -0.1
v -0.5 0.7 -0.5
v -0.5 0.8 0.5
v -0.5 0.8 0.4
v -0.5 0.8 0.3
v -0.5 0.8 0.2
v -0.5 0.8 0
v -0.5 0.8 -0.1
v -0.5 0.8 -0.4
v -0.5 0.8 -0.5
v -0.5 0.9 0.4
v -0.5 0.9 -0.4
v -0.4 0.8 0.5
v -0.4 0.8 0.4
v -0.4 0.8 -0.4
v -0.4 0.8 -0.5
v -0.4 0.9 0.5
v -0.4 0.9 0.4
v -0.4 0.9 0.2
v -0.4 0.9 -0.2
v -0.4 0.9 -0.4
v -0.4 0.9 -0.5
v -0.4 1 0.2
v -0.4 1 -0.2
v -0.3 0.9 0.3
v -0.3 0.9 0.2
v -0.3 0.9 -0.2
v -0.3 0.9 -0.3
v -0.3 1 0.3
v -0.3 1 0.2
v -0.3 1 0.1
v -0.3 1 0
v -0.3 1 -0.1
v -0.3 1 -0.2
v -0.3 1 -0.3
v -0.3 1.1 0.1
v -0.3 1.1 0
v -0.3 1.1 -0.1
v -0.2 0.9 0.4
v -0.2 0.9 0.3
v -0.2 0.9 -0.3
v -0.2 0.9 -0.4
v -0.2 1 0.4
v -0.2 1 0.3
v -0.2 1 0.2
v -0.2 1 0.1
v -0.2 1 -0.1
v -0.2 1 -0.2
v -0.2 1 -0.3
v -0.2 1 -0.4
v -0.2 1.1 0.1
v -0.2 1.1 0
v -0.2 1.1 -0.1
v -0.2 1.2 0.2
v -0.2 1.2 -0.2
v -0.1 0 0.1
v -0.1 0 -0.1
v -0.1 0.7 0.1
v -0.1 0.7 -0.1
v -0.1 1 0.3
v -0.1 1 0.2
v -0.1 1 -0.2
v -0.1 1 -0.3
v -0.1 1.1 0.3
v -0.1 1.1 0.2
v -0.1 1.1 -0.2
v -0.1 1.1 -0.3
v -0.1 1.2 0.1
v -0.1 1.2 -0.1
v -0.1 1.3 0.1
v -0.1 1.3 -0.1
v 0.1 0 0.1
v 0.1 0 -0.1
v 0.1 0.7 0.1
v 0.1 0.7 -0.1
v 0.1 1 0.3
v 0.1 1 0.2
v 0.1 1 -0.2
v 0.1 1 -0.3
v 0.1 1.1 0.3
v 0.1 1.1 0.2
v 0.1 1.1 -0.2
v 0.1 1.1 -0.3
v 0.1 1.2 0.1
v 0.1 1.2 0
v 0.1 1.2 -0.1
v 0.1 1.3 0.1
v 0.1 1.3 -0.1
v 0.2 0.9 0.4
v 0.2 0.9 0.3
v 0.2 0.9 -0.3
v 0.2 0.9 -0.4
v 0.2 1 0.4
v 0.2 1 0.3
v 0.2 1 0.2
v 0.2 1 0.1
v 0.2 1 -0.1
v 0.2 1 -0.2
v 0.2 1 -0.3
v 0.2 1 -0.4
v 0.2 1.1 0.1
v 0.2 1.1 0
v 0.2 1.1 -0.1
v 0.2 1.1 -0.2
v 0.2 1.2 0.2
v 0.2 1.2 0.1
v 0.2 1.2 0
v 0.2 1.2 -0.2
v 0.3 0.9 0.3
v 0.3 0.9 0.2
v 0.3 0.9 -0.2
v 0.3 0.9 -0.3
v 0.3 1 0.3
v 0.3 1 0.2
v 0.3 1 0.1
v 0.3 1 -0.1
v 0.3 1 -0.2
v 0.3 1 -0.3
v 0.3 1.1 0.1
v 0.3 1.1 -0.1
v 0.4 0.8 0.5
v 0.4 0.8 0.4
v 0.4 0.8 -0.4
v 0.4 0.8 -0.5
v 0.4 0.9 0.5
v 0.4 0.9 0.4
v 0.4 0.9 0.2
v 0.4 0.9 -0.2
v 0.4 0.9 -0.4
v 0.4 0.9 -0.5
v 0.4 1 0.2
v 0.4 1 -0.2
v 0.5 0.7 0.5
v 0.5 0.7 0.3
v 0.5 0.7 0.2
v 0.5 0.7 0
v 0.5 0.7 -0.1
v 0.5 0.7 -0.5
v 0.5 0.8 0.5
v 0.5 0.8 0.4
v 0.5 0.8 0.3
v 0.5 0.8 0.2
v 0.5 0.8 0
v 0.5 0.8 -0.1
v 0.5 0.8 -0.3
v 0.5 0.8 -0.4
v 0.5 0.8 -0.5
v 0.5 0.9 0.4
v 0.5 0.9 -0.3
v 0.5 0.9 -0.4
v -0.5 0.7 0.5
v -0.5 0.8 0.5
v -0.4 0.8 0.5
v -0.4 0.9 0.5
v -0.3 0.8 0.5
v -0.3 0.9 0.5
v 0 0.7 0.5
v 0 0.8 0.5
v 0.1 0.7 0.5
v 0.1 0.8 0.5
v 0.4 0.8 0.5
v 0.4 0.9 0.5
v 0.5 0.7 0.5
v 0.5 0.8 0.5
v -0.5 0.8 0.4
v -0.5 0.9 0.4
v -0.4 0.8 0.4
v -0.4 0.9 0.4
v -0.2 0.9 0.4
v -0.2 1 0.4
v 0.1 0.9 0.4
v 0.1 1 0.4
v 0.2 0.9 0.4
v 0.2 1 0.4
v 0.4 0.8 0.4
v 0.4 0.9 0.4
v 0.5 0.8 0.4
v 0.5 0.9 0.4
v -0.3 0.9 0.3
v -0.3 1 0.3
v -0.2 0.9 0.3
v -0.2 1 0.3
v -0.1 1 0.3
v -0.1 1.1 0.3
v 0.1 1 0.3
v 0.1 1.1 0.3
v 0.2 0.9 0.3
v 0.2 1 0.3
v 0.3 0.9 0.3
v 0.3 1 0.3
v -0.4 0.9 0.2
v -0.4 1 0.2
v -0.3 0.9 0.2
v -0.3 1 0.2
v -0.2 1 0.2
v -0.2 1.2 0.2
v -0.1 1 0.2
v -0.1 1.1 0.2
v 0.1 1 0.2
v 0.1 1.1 0.2
v 0.2 1 0.2
v 0.2 1.2 0.2
v 0.3 0.9 0.2
v 0.3 1 0.2
v 0.4 0.9 0.2
v 0.4 1 0.2
v -0.3 1 0.1
v -0.3 1.1 0.1
v -0.2 1 0.1
v -0.2 1.1 0.1
v -0.1 0 0.1
v -0.1 0.7 0.1
v -0.1 1.2 0.1
v -0.1 1.3 0.1
v 0.1 0 0.1
v 0.1 0.7 0.1
v 0.1 1.2 0.1
v 0.1 1.3 0.1
v 0.2 1 0.1
v 0.2 1.1 0.1
v 0.3 1 0.1
v 0.3 1.1 0.1
v -0.3 1 -0.1
v -0.3 1.1 -0.1
v -0.2 1 -0.1
v -0.2 1.1 -0.1
v -0.1 0 -0.1
v -0.1 0.7 -0.1
v -0.1 1.2 -0.1
v -0.1 1.3 -0.1
v 0.1 0 -0.1
v 0.1 0.7 -0.1
v 0.1 1.2 -0.1
v 0.1 1.3 -0.1
v 0.2 1 -0.1
v 0.2 1.1 -0.1
v 0.3 1 -0.1
v 0.3 1.1 -0.1
v -0.4 0.9 -0.2
v -0.4 1 -0.2
v -0.3 0.9 -0.2
v -0.3 1 -0.2
v -0.2 1 -0.2
v -0.2 1.2 -0.2
v -0.1 1 -0.2
v -0.1 1.1 -0.2
v 0.1 1 -0.2
v 0.1 1.1 -0.2
v 0.2 1 -0.2
v 0.2 1.1 -0.2
v 0.2 1.2 -0.2
v 0.3 0.9 -0.2
v 0.3 1 -0.2
v 0.4 0.9 -0.2
v 0.4 1 -0.2
v -0.3 0.9 -0.3
v -0.3 1 -0.3
v -0.2 0.9 -0.3
v -0.2 1 -0.3
v -0.1 1 -0.3
v -0.1 1.1 -0.3
v 0 1 -0.3
v 0.1 1 -0.3
v 0.1 1.1 -0.3
v 0.2 0.9 -0.3
v 0.2 1 -0.3
v 0.3 0.9 -0.3
v 0.3 1 -0.3
v -0.5 0.8 -0.4
v -0.5 0.9 -0.4
v -0.4 0.8 -0.4
v -0.4 0.9 -0.4
v -0.2 0.9 -0.4
v -0.2 1 -0.4
v 0 0.9 -0.4
v 0 1 -0.4
v 0.1 0.9 -0.4
v 0.1 1 -0.4
v 0.2 0.9 -0.4
v 0.2 1 -0.4
v 0.4 0.8 -0.4
v 0.4 0.9 -0.4
v 0.5 0.8 -0.4
v 0.5 0.9 -0.4
v -0.5 0.7 -0.5
v -0.5 0.8 -0.5
v -0.4 0.7 -0.5
v -0.4 0.8 -0.5
v -0.4 0.9 -0.5
v -0.3 0.7 -0.5
v -0.3 0.8 -0.5
v 0 0.7 -0.5
v 0 0.8 -0.5
v 0.1 0.7 -0.5
v 0.1 0.8 -0.5
v 0.4 0.8 -0.5
v 0.4 0.9 -0.5
v 0.5 0.7 -0.5
v 0.5 0.8 -0.5
v -0.1 0 0.1
v 0.1 0 0.1
v -0.1 0 -0.1
v 0.1 0 -0.1
v -0.5 0.7 0.5
v 0 0.7 0.5
v 0.1 0.7 0.5
v 0.5 0.7 0.5
v 0 0.7 0.4
v 0.1 0.7 0.4
v -0.5 0.7 0.3
v -0.4 0.7 0.3
v 0.4 0.7 0.3
v 0.5 0.7 0.3
v -0.5 0.7 0.2
v -0.4 0.7 0.2
v 0.4 0.7 0.2
v 0.5 0.7 0.2
v -0.1 0.7 0.1
v 0.1 0.7 0.1
v -0.5 0.7 0
v -0.4 0.7 0
v 0.4 0.7 0
v 0.5 0.7 0
v -0.5 0.7 -0.1
v -0.4 0.7 -0.1
v -0.1 0.7 -0.1
v 0.1 0.7 -0.1
v 0.4 0.7 -0.1
v 0.5 0.7 -0.1
v -0.4 0.7 -0.4
v -0.3 0.7 -0.4
v 0 0.7 -0.4
v 0.1 0.7 -0.4
v -0.5 0.7 -0.5
v -0.4 0.7 -0.5
v -0.3 0.7 -0.5
v 0 0.7 -0.5
v 0.1 0.7 -0.5
v 0.5 0.7 -0.5
v -0.5 0.8 0.5
v -0.4 0.8 0.5
v 0.4 0.8 0.5
v 0.5 0.8 0.5
v -0.5 0.8 0.4
v -0.4 0.8 0.4
v 0.4 0.8 0.4
v 0.5 0.8 0.4
v -0.5 0.8 -0.4
v -0.4 0.8 -0.4
v 0.4 0.8 -0.4
v 0.5 0.8 -0.4
v -0.5 0.8 -0.5
v -0.4 0.8 -0.5
v 0.4 0.8 -0.5
v 0.5 0.8 -0.5
v -0.4 0.9 0.5
v -0.3 0.9 0.5
v 0.4 0.9 0.5
v -0.5 0.9 0.4
v -0.4 0.9 0.4
v -0.3 0.9 0.4
v -0.2 0.9 0.4
v 0.1 0.9 0.4
v 0.2 0.9 0.4
v 0.4 0.9 0.4
v 0.5 0.9 0.4
v -0.3 0.9 0.3
v -0.2 0.9 0.3
v 0.2 0.9 0.3
v 0.3 0.9 0.3
v -0.4 0.9 0.2
v -0.3 0.9 0.2
v 0.3 0.9 0.2
v 0.4 0.9 0.2
v -0.4 0.9 -0.2
v -0.3 0.9 -0.2
v 0.3 0.9 -0.2
v 0.4 0.9 -0.2
v -0.3 0.9 -0.3
v -0.2 0.9 -0.3
v 0.2 0.9 -0.3
v 0.3 0.9 -0.3
v 0.4 0.9 -0.3
v 0.5 0.9 -0.3
v -0.5 0.9 -0.4
v -0.4 0.9 -0.4
v -0.2 0.9 -0.4
v 0 0.9 -0.4
v 0.1 0.9 -0.4
v 0.2 0.9 -0.4
v 0.4 0.9 -0.4
v 0.5 0.9 -0.4
v -0.4 0.9 -0.5
v 0.4 0.9 -0.5
v -0.2 1 0.4
v 0.1 1 0.4
v 0.2 1 0.4
v -0.3 1 0.3
v -0.2 1 0.3
v -0.1 1 0.3
v 0.1 1 0.3
v 0.2 1 0.3
v 0.3 1 0.3
v -0.4 1 0.2
v -0.3 1 0.2
v -0.2 1 0.2
v -0.1 1 0.2
v 0.1 1 0.2
v 0.2 1 0.2
v 0.3 1 0.2
v 0.4 1 0.2
v -0.3 1 0.1
v -0.2 1 0.1
v 0.2 1 0.1
v 0.3 1 0.1
v -0.3 1 0
v -0.3 1 -0.1
v -0.2 1 -0.1
v 0.2 1 -0.1
v 0.3 1 -0.1
v -0.4 1 -0.2
v -0.3 1 -0.2
v -0.2 1 -0.2
v -0.1 1 -0.2
v 0.1 1 -0.2
v 0.2 1 -0.2
v 0.3 1 -0.2
v 0.4 1 -0.2
v -0.3 1 -0.3
v -0.2 1 -0.3
v -0.1 1 -0.3
v 0 1 -0.3
v 0.1 1 -0.3
v 0.2 1 -0.3
v 0.3 1 -0.3
v -0.2 1 -0.4
v 0 1 -0.4
v 0.1 1 -0.4
v 0.2 1 -0.4
v -0.1 1.1 0.3
v 0.1 1.1 0.3
v -0.1 1.1 0.2
v 0.1 1.1 0.2
v -0.3 1.1 0.1
v -0.2 1.1 0.1
v 0.2 1.1 0.1
v 0.3 1.1 0.1
v -0.3 1.1 0
v -0.2 1.1 0
v 0.2 1.1 0
v -0.3 1.1 -0.1
v -0.2 1.1 -0.1
v 0.2 1.1 -0.1
v 0.3 1.1 -0.1
v -0.1 1.1 -0.2
v 0.1 1.1 -0.2
v -0.1 1.1 -0.3
v 0.1 1.1 -0.3
v -0.2 1.2 0.2
v 0.2 1.2 0.2
v -0.1 1.2 0.1
v 0.1 1.2 0.1
v 0.2 1.2 0.1
v 0.1 1.2 0
v 0.2 1.2 0
v -0.1 1.2 -0.1
v 0.1 1.2 -0.1
v -0.2 1.2 -0.2
v 0.2 1.2 -0.2
v -0.1 1.3 0.1
v 0.1 1.3 0.1
v -0.1 1.3 -0.1
v 0.1 1.3 -0.1

# faces
f 7/3/1 2/3/1 1/3/1
f 8/3/1 2/3/1 7/3/1
f 9/1/1 3/1/1 2/1/1
f 9/3/1 2/3/1 8/3/1
f 10/3/1 4/3/1 3/3/1
f 10/1/1 3/1/1 9/1/1
f 11/1/1 5/1/1 4/1/1
f 11/3/1 4/3/1 10/3/1
f 12/3/1 6/3/1 5/3/1
f 12/1/1 5/1/1 11/1/1
f 13/3/1 6/3/1 12/3/1
f 14/3/1 6/3/1 13/3/1
f 15/3/1 11/3/1 10/3/1
f 15/3/1 13/3/1 12/3/1
f 15/3/1 12/3/1 11/3/1
f 15/3/1 9/3/1 8/3/1
f 15/3/1 10/3/1 9/3/1
f 16/3/1 13/3/1 15/3/1
f 21/1/1 18/1/1 17/1/1
f 22/1/1 18/1/1 21/1/1
f 25/3/1 20/3/1 19/3/1
f 26/3/1 20/3/1 25/3/1
f 27/3/1 24/3/1 23/3/1
f 28/3/1 24/3/1 27/3/1
f 33/3/1 30/3/1 29/3/1
f 34/3/1 30/3/1 33/3/1
f 38/1/1 32/1/1 31/1/1
f 39/1/1 32/1/1 38/1/1
f 40/3/1 36/3/1 35/3/1
f 41/1/1 37/1/1 36/1/1
f 41/3/1 36/3/1 40/3/1
f 42/1/1 37/1/1 41/1/1
f 47/3/1 44/3/1 43/3/1
f 48/3/1 44/3/1 47/3/1
f 53/3/1 46/3/1 45/3/1
f 54/3/1 46/3/1 53/3/1
f 55/3/1 50/3/1 49/3/1
f 57/3/1 52/3/1 51/3/1
f 58/3/1 56/3/1 55/3/1
f 58/3/1 57/3/1 56/3/1
f 58/3/1 55/3/1 49/3/1
f 59/3/1 52/3/1 57/3/1
f 59/3/1 57/3/1 58/3/1
f 62/2/1 61/2/1 60/2/1
f 63/2/1 61/2/1 62/2/1
f 68/3/1 65/3/1 64/3/1
f 69/3/1 65/3/1 68/3/1
f 70/3/1 67/3/1 66/3/1
f 71/3/1 67/3/1 70/3/1
f 74/3/1 73/3/1 72/3/1
f 75/3/1 73/3/1 74/3/1
f 76/2/2 77/2/2 78/2/2
f 78/2/2 77/2/2 79/2/2
f 80/3/2 81/3/2 84/3/2
f 84/3/2 81/3/2 85/3/2
f 82/3/2 83/3/2 86/3/2
f 86/3/2 83/3/2 87/3/2
f 88/3/2 89/3/2 91/3/2
f 89/3/2 90/3/2 91/3/2
f 91/3/2 90/3/2 92/3/2
f 93/1/2 94/1/2 97/1/2
f 97/1/2 94/1/2 98/1/2
f 95/3/2 96/3/2 103/3/2
f 103/3/2 96/3/2 104/3/2
f 99/3/2 100/3/2 105/3/2
f 101/1/2 102/1/2 107/1/2
f 107/1/2 102/1/2 108/1/2
f 99/3/2 105/3/2 109/3/2
f 105/1/2 106/1/2 110/1/2
f 109/3/2 105/3/2 110/3/2
f 106/3/2 107/3/2 111/3/2
f 110/1/2 106/1/2 111/1/2
f 107/3/2 108/3/2 111/3/2
f 111/3/2 108/3/2 112/3/2
f 113/3/2 114/3/2 117/3/2
f 117/3/2 114/3/2 118/3/2
f 115/3/2 116/3/2 121/3/2
f 121/3/2 116/3/2 122/3/2
f 119/3/2 120/3/2 123/3/2
f 123/3/2 120/3/2 124/3/2
f 125/3/2 126/3/2 129/3/2
f 129/3/2 126/3/2 130/3/2
f 127/3/2 128/3/2 133/3/2
f 133/3/2 128/3/2 134/3/2
f 131/3/2 132/3/2 135/3/2
f 135/3/2 132/3/2 136/3/2
f 137/3/2 138/3/2 143/3/2
f 143/3/2 138/3/2 144/3/2
f 138/1/2 139/1/2 145/1/2
f 144/3/2 138/3/2 145/3/2
f 139/3/2 140/3/2 146/3/2
f 145/1/2 139/1/2 146/1/2
f 140/1/2 141/1/2 147/1/2
f 146/3/2 140/3/2 147/3/2
f 141/3/2 142/3/2 148/3/2
f 147/1/2 141/1/2 148/1/2
f 148/3/2 142/3/2 149/3/2
f 149/3/2 142/3/2 150/3/2
f 150/3/2 142/3/2 151/3/2
f 146/3/2 147/3/2 152/3/2
f 144/3/2 145/3/2 152/3/2
f 148/3/2 149/3/2 152/3/2
f 147/3/2 148/3/2 152/3/2
f 145/3/2 146/3/2 152/3/2
f 149/1/2 150/1/2 153/1/2
f 152/3/2 149/3/2 153/3/2
f 153/1/2 150/1/2 154/1/2
f 157/3/3 156/3/3 155/3/3
f 159/3/3 157/3/3 155/3/3
f 159/1/3 158/1/3 157/1/3
f 160/1/3 158/1/3 159/1/3
f 161/3/3 159/3/3 155/3/3
f 161/3/3 160/3/3 159/3/3
f 162/3/3 160/3/3 161/3/3
f 163/1/3 162/1/3 161/1/3
f 164/3/3 160/3/3 162/3/3
f 164/1/3 162/1/3 163/1/3
f 165/3/3 164/3/3 163/3/3
f 165/3/3 160/3/3 164/3/3
f 166/3/3 160/3/3 165/3/3
f 167/3/3 165/3/3 163/3/3
f 168/3/3 165/3/3 167/3/3
f 171/3/3 170/3/3 169/3/3
f 172/3/3 170/3/3 171/3/3
f 175/3/3 174/3/3 173/3/3
f 176/3/3 174/3/3 175/3/3
f 177/1/3 176/1/3 175/1/3
f 178/1/3 176/1/3 177/1/3
f 181/3/3 180/3/3 179/3/3
f 182/3/3 180/3/3 181/3/3
f 185/3/3 184/3/3 183/3/3
f 186/3/3 184/3/3 185/3/3
f 189/3/3 188/3/3 187/3/3
f 190/3/3 188/3/3 189/3/3
f 193/3/3 192/3/3 191/3/3
f 194/3/3 192/3/3 193/3/3
f 197/3/3 196/3/3 195/3/3
f 198/3/3 196/3/3 197/3/3
f 201/3/3 200/3/3 199/3/3
f 202/3/3 200/3/3 201/3/3
f 204/3/3 200/3/3 202/3/3
f 205/3/3 204/3/3 203/3/3
f 206/3/3 200/3/3 204/3/3
f 206/3/3 204/3/3 205/3/3
f 209/3/3 208/3/3 207/3/3
f 210/3/3 208/3/3 209/3/3
f 213/3/3 212/3/3 211/3/3
f 214/3/3 212/3/3 213/3/3
f 219/2/3 216/2/3 215/2/3
f 220/2/3 216/2/3 219/2/3
f 221/3/3 218/3/3 217/3/3
f 222/3/3 218/3/3 221/3/3
f 225/3/3 224/3/3 223/3/3
f 226/3/3 224/3/3 225/3/3
f 227/1/4 228/1/4 229/1/4
f 229/1/4 228/1/4 230/1/4
f 231/2/4 232/2/4 235/2/4
f 235/2/4 232/2/4 236/2/4
f 233/3/4 234/3/4 237/3/4
f 237/3/4 234/3/4 238/3/4
f 239/3/4 240/3/4 241/3/4
f 241/3/4 240/3/4 242/3/4
f 243/3/4 244/3/4 245/3/4
f 245/3/4 244/3/4 246/3/4
f 247/3/4 248/3/4 249/3/4
f 249/3/4 248/3/4 250/3/4
f 250/3/4 248/3/4 252/3/4
f 251/1/4 252/1/4 253/1/4
f 252/3/4 248/3/4 254/3/4
f 253/1/4 252/1/4 254/1/4
f 254/3/4 248/3/4 255/3/4
f 256/3/4 257/3/4 258/3/4
f 258/3/4 257/3/4 259/3/4
f 260/1/4 261/1/4 262/1/4
f 262/1/4 261/1/4 263/1/4
f 264/3/4 265/3/4 266/3/4
f 266/3/4 265/3/4 267/3/4
f 267/3/4 265/3/4 268/3/4
f 269/3/4 270/3/4 271/3/4
f 271/3/4 270/3/4 272/3/4
f 273/3/4 274/3/4 275/3/4
f 275/3/4 274/3/4 276/3/4
f 277/3/4 278/3/4 279/3/4
f 279/3/4 278/3/4 280/3/4
f 279/1/4 280/1/4 281/1/4
f 281/1/4 280/1/4 282/1/4
f 281/3/4 282/3/4 283/3/4
f 283/3/4 282/3/4 284/3/4
f 285/1/4 286/1/4 287/1/4
f 287/1/4 286/1/4 288/1/4
f 289/3/4 290/3/4 291/3/4
f 291/3/4 290/3/4 292/3/4
f 291/1/4 292/1/4 294/1/4
f 292/3/4 293/3/4 295/3/4
f 294/1/4 292/1/4 295/1/4
f 294/3/4 295/3/4 296/3/4
f 295/3/4 293/3/4 297/3/4
f 296/3/4 295/3/4 297/3/4
f 296/1/4 297/1/4 298/1/4
f 297/3/4 293/3/4 299/3/4
f 298/1/4 297/1/4 299/1/4
f 298/3/4 299/3/4 300/3/4
f 299/3/4 293/3/4 300/3/4
f 300/3/4 293/3/4 301/3/4
f 298/3/4 300/3/4 302/3/4
f 302/3/4 300/3/4 303/3/4
f 306/2/5 305/2/5 304/2/5
f 307/2/5 305/2/5 306/2/5
f 312/3/5 309/3/5 308/3/5
f 312/1/5 310/1/5 309/1/5
f 313/3/5 311/3/5 310/3/5
f 313/1/5 310/1/5 312/1/5
f 314/3/5 312/3/5 308/3/5
f 314/3/5 313/3/5 312/3/5
f 315/3/5 313/3/5 314/3/5
f 316/3/5 311/3/5 313/3/5
f 316/3/5 313/3/5 315/3/5
f 317/3/5 311/3/5 316/3/5
f 318/1/5 315/1/5 314/1/5
f 319/3/5 316/3/5 315/3/5
f 319/1/5 315/1/5 318/1/5
f 320/1/5 317/1/5 316/1/5
f 320/3/5 316/3/5 319/3/5
f 321/1/5 317/1/5 320/1/5
f 322/3/5 319/3/5 318/3/5
f 322/3/5 320/3/5 319/3/5
f 322/3/5 321/3/5 320/3/5
f 323/3/5 321/3/5 322/3/5
f 324/3/5 322/3/5 318/3/5
f 325/3/5 322/3/5 324/3/5
f 326/3/5 321/3/5 323/3/5
f 327/3/5 321/3/5 326/3/5
f 328/1/5 325/1/5 324/1/5
f 329/3/5 322/3/5 325/3/5
f 329/1/5 325/1/5 328/1/5
f 330/3/5 322/3/5 329/3/5
f 331/3/5 326/3/5 323/3/5
f 332/1/5 327/1/5 326/1/5
f 332/3/5 326/3/5 331/3/5
f 333/1/5 327/1/5 332/1/5
f 334/3/5 330/3/5 329/3/5
f 334/3/5 331/3/5 330/3/5
f 334/3/5 333/3/5 332/3/5
f 334/3/5 332/3/5 331/3/5
f 334/3/5 329/3/5 328/3/5
f 335/3/5 333/3/5 334/3/5
f 336/3/5 333/3/5 335/3/5
f 337/3/5 333/3/5 336/3/5
f 338/3/5 334/3/5 328/3/5
f 339/1/5 335/1/5 334/1/5
f 339/3/5 334/3/5 338/3/5
f 340/3/5 336/3/5 335/3/5
f 340/1/5 335/1/5 339/1/5
f 341/1/5 337/1/5 336/1/5
f 341/3/5 336/3/5 340/3/5
f 342/3/5 333/3/5 337/3/5
f 342/1/5 337/1/5 341/1/5
f 343/3/5 333/3/5 342/3/5
f 344/3/6 345/3/6 348/3/6
f 348/3/6 345/3/6 349/3/6
f 346/3/6 347/3/6 350/3/6
f 350/3/6 347/3/6 351/3/6
f 352/3/6 353/3/6 356/3/6
f 356/3/6 353/3/6 357/3/6
f 354/3/6 355/3/6 358/3/6
f 358/3/6 355/3/6 359/3/6
f 360/1/6 361/1/6 364/1/6
f 361/3/6 362/3/6 365/3/6
f 364/1/6 361/1/6 365/1/6
f 365/3/6 362/3/6 366/3/6
f 366/3/6 362/3/6 367/3/6
f 367/3/6 362/3/6 368/3/6
f 368/3/6 362/3/6 369/3/6
f 363/3/6 364/3/6 371/3/6
f 364/3/6 365/3/6 371/3/6
f 365/3/6 366/3/6 371/3/6
f 371/3/6 366/3/6 372/3/6
f 369/3/6 370/3/6 373/3/6
f 368/3/6 369/3/6 373/3/6
f 373/3/6 370/3/6 374/3/6
f 363/3/6 371/3/6 375/3/6
f 375/3/6 371/3/6 376/3/6
f 374/3/6 370/3/6 377/3/6
f 377/3/6 370/3/6 378/3/6
f 363/3/6 375/3/6 379/3/6
f 378/3/6 370/3/6 382/3/6
f 379/3/6 380/3/6 383/3/6
f 381/3/6 382/3/6 386/3/6
f 382/3/6 370/3/6 387/3/6
f 386/3/6 382/3/6 387/3/6
f 387/3/6 370/3/6 388/3/6
f 383/3/6 384/3/6 389/3/6
f 363/3/6 379/3/6 389/3/6
f 379/3/6 383/3/6 389/3/6
f 389/3/6 384/3/6 390/3/6
f 390/3/6 384/3/6 391/3/6
f 385/3/6 386/3/6 394/3/6
f 386/3/6 387/3/6 394/3/6
f 387/1/6 388/1/6 395/1/6
f 394/3/6 387/3/6 395/3/6
f 395/1/6 388/1/6 396/1/6
f 393/3/6 394/3/6 397/3/6
f 392/3/6 393/3/6 397/3/6
f 394/3/6 395/3/6 397/3/6
f 391/3/6 392/3/6 397/3/6
f 390/3/6 391/3/6 397/3/6
f 397/3/6 395/3/6 398/3/6
f 399/3/6 400/3/6 403/3/6
f 403/3/6 400/3/6 404/3/6
f 400/1/6 401/1/6 405/1/6
f 404/3/6 400/3/6 405/3/6
f 405/1/6 401/1/6 406/1/6
f 403/3/6 404/3/6 409/3/6
f 402/3/6 403/3/6 409/3/6
f 409/3/6 404/3/6 410/3/6
f 410/3/6 404/3/6 411/3/6
f 405/3/6 406/3/6 412/3/6
f 406/3/6 407/3/6 412/3/6
f 412/3/6 407/3/6 413/3/6
f 413/3/6 407/3/6 414/3/6
f 409/3/6 410/3/6 416/3/6
f 408/3/6 409/3/6 416/3/6
f 416/3/6 410/3/6 417/3/6
f 414/3/6 415/3/6 418/3/6
f 413/3/6 414/3/6 418/3/6
f 418/3/6 415/3/6 419/3/6
f 408/3/6 416/3/6 420/3/6
f 408/3/6 420/3/6 421/3/6
f 419/3/6 415/3/6 424/3/6
f 421/3/6 422/3/6 425/3/6
f 408/3/6 421/3/6 425/3/6
f 425/3/6 422/3/6 426/3/6
f 426/3/6 422/3/6 427/3/6
f 423/3/6 424/3/6 430/3/6
f 424/3/6 415/3/6 431/3/6
f 430/3/6 424/3/6 431/3/6
f 431/3/6 415/3/6 432/3/6
f 426/1/6 427/1/6 433/1/6
f 427/3/6 428/3/6 434/3/6
f 433/1/6 427/1/6 434/1/6
f 434/3/6 428/3/6 435/3/6
f 429/3/6 430/3/6 437/3/6
f 430/3/6 431/3/6 437/3/6
f 437/3/6 431/3/6 438/3/6
f 438/3/6 431/3/6 439/3/6
f 435/3/6 436/3/6 440/3/6
f 434/3/6 435/3/6 440/3/6
f 436/1/6 437/1/6 441/1/6
f 440/3/6 436/3/6 441/3/6
f 437/3/6 438/3/6 442/3/6
f 441/1/6 437/1/6 442/1/6
f 442/3/6 438/3/6 443/3/6
f 444/3/6 445/3/6 446/3/6
f 446/3/6 445/3/6 447/3/6
f 448/3/6 449/3/6 452/3/6
f 452/3/6 449/3/6 453/3/6
f 450/3/6 451/3/6 454/3/6
f 452/1/6 453/1/6 455/1/6
f 455/1/6 453/1/6 456/1/6
f 454/3/6 451/3/6 457/3/6
f 457/3/6 451/3/6 458/3/6
f 459/3/6 460/3/6 461/3/6
f 461/3/6 460/3/6 462/3/6
f 463/3/6 464/3/6 465/3/6
f 465/3/6 464/3/6 466/3/6
f 466/3/6 464/3/6 467/3/6
f 466/1/6 467/1/6 468/1/6
f 468/1/6 467/1/6 469/1/6
f 463/3/6 465/3/6 470/3/6
f 468/3/6 469/3/6 471/3/6
f 463/3/6 470/3/6 472/3/6
f 470/3/6 471/3/6 472/3/6
f 471/3/6 469/3/6 473/3/6
f 472/3/6 471/3/6 473/3/6
f 474/3/6 475/3/6 476/3/6
f 476/3/6 475/3/6 477/3/6
